<svg xmlns="http://www.w3.org/2000/svg" xmlns:xlink="http://www.w3.org/1999/xlink" width="67" height="67" viewBox="0 0 67 67"><defs><filter id="a" x="12" y="15" width="43" height="38" filterUnits="userSpaceOnUse"><feOffset input="SourceAlpha"/><feGaussianBlur stdDeviation="5" result="b"/><feFlood flood-color="#0062ff"/><feComposite operator="in" in2="b"/><feComposite in="SourceGraphic"/></filter><filter id="c" x="0" y="0" width="67" height="67" filterUnits="userSpaceOnUse"><feOffset input="SourceAlpha"/><feGaussianBlur stdDeviation="5" result="d"/><feFlood flood-color="#0062ff"/><feComposite operator="in" in2="d"/><feComposite in="SourceGraphic"/></filter></defs><g transform="translate(15 -478.53)"><g transform="matrix(1, 0, 0, 1, -15, 478.53)" filter="url(#a)"><path d="M6.5,8,0,0H1.379L6.5,6.3,11.621,0H13L6.5,8Z" transform="translate(27 30)" fill="#fff"/></g><g transform="matrix(1, 0, 0, 1, -15, 478.53)" filter="url(#c)"><path d="M18.5,37A18.5,18.5,0,0,1,11.3,1.454,18.5,18.5,0,0,1,25.7,35.546,18.383,18.383,0,0,1,18.5,37ZM18.5.9A17.6,17.6,0,0,0,6.053,30.947,17.6,17.6,0,1,0,30.947,6.053,17.487,17.487,0,0,0,18.5.9Z" transform="translate(15 15)" fill="#fff"/></g></g></svg>