<svg xmlns="http://www.w3.org/2000/svg" xmlns:xlink="http://www.w3.org/1999/xlink" width="24" height="24" viewBox="0 0 24 24"><defs><clipPath id="a"><rect width="24" height="24" fill="#fff"/></clipPath></defs><g clip-path="url(#a)"><g transform="translate(0)"><path d="M17.759,13.791c-.047-.022-1.8-.884-2.107-1a1.21,1.21,0,0,0-.408-.09.693.693,0,0,0-.589.349c-.175.26-.7.878-.867,1.063-.021.024-.05.054-.068.054s-.286-.112-.368-.147a9.207,9.207,0,0,1-3.5-3.107.193.193,0,0,1-.029-.069.564.564,0,0,1,.1-.121c.1-.094.2-.219.3-.339.047-.057.095-.114.141-.168a1.885,1.885,0,0,0,.284-.451l.039-.079a.816.816,0,0,0-.024-.768c-.041-.083-.78-1.866-.859-2.053-.189-.452-.438-.662-.785-.662-.032,0,0,0-.135.006a4.194,4.194,0,0,0-1.455.374A3.045,3.045,0,0,0,6.3,9.177a5.584,5.584,0,0,0,1.211,3.074l.05.072a11.4,11.4,0,0,0,4.889,4.244,7.951,7.951,0,0,0,2.953.755h0a4.614,4.614,0,0,0,.48-.028l.086-.008a3.1,3.1,0,0,0,2.164-1.532,2.421,2.421,0,0,0,.138-1.594A1.1,1.1,0,0,0,17.759,13.791Z" transform="translate(0)" fill="#fff"/><path d="M12.213,0A11.757,11.757,0,0,0,.425,11.7a11.613,11.613,0,0,0,1.616,5.916L.017,23.588a.312.312,0,0,0,.39.4l6.228-1.979A11.807,11.807,0,0,0,24,11.7,11.757,11.757,0,0,0,12.213,0Zm0,20.961a9.339,9.339,0,0,1-5.138-1.532.312.312,0,0,0-.265-.036l-3.12.992L4.7,17.413a.312.312,0,0,0-.044-.284A9.135,9.135,0,0,1,2.876,11.7a9.337,9.337,0,1,1,9.337,9.261Z" transform="translate(0)" fill="#fff"/></g></g></svg>